<svg xmlns="http://www.w3.org/2000/svg" viewBox="0 0 481.89 56.46"><title>Word</title><g id="Layer_2" data-name="Layer 2"><g id="Layer_1-2" data-name="Layer 1"><path d="M51.83,16.76H48.89a32.08,32.08,0,0,0-3.75-7.31c-1.71-2.6-3.31-4-4.76-4.21-.8-.1-1.79-.18-3-.26s-2.19-.12-3.05-.12H32.59v42a5.64,5.64,0,0,0,.49,2.39A3.43,3.43,0,0,0,35,50.85a15.31,15.31,0,0,0,2.68.7c1.22.24,2.25.41,3.1.52V55H11V52.06l3.06-.32a11.51,11.51,0,0,0,2.68-.5,3.57,3.57,0,0,0,2-1.62,5.59,5.59,0,0,0,.49-2.42V4.87H17.47q-1.29,0-3.05.12c-1.18.08-2.18.15-3,.26C10,5.44,8.39,6.85,6.68,9.45a32.08,32.08,0,0,0-3.75,7.31H0V1.47H51.83V16.76ZM104.9,55H75.79V52.06a38.06,38.06,0,0,0,4.84-.73q2.78-.6,2.78-1.47a4.66,4.66,0,0,0-.06-.68,4.5,4.5,0,0,0-.31-1L78.44,37H59.9c-.43,1-.89,2.25-1.4,3.64s-1,2.63-1.34,3.72a19.94,19.94,0,0,0-.85,3.06,10.87,10.87,0,0,0-.13,1.34c0,.8.61,1.49,1.83,2.06a20.21,20.21,0,0,0,6.11,1.24V55H42.19V52.06a19.79,19.79,0,0,0,2.81-.4,7.21,7.21,0,0,0,2.47-.89,9.52,9.52,0,0,0,2.61-2.23,11.51,11.51,0,0,0,1.79-3.13q4.36-10.6,8.75-21.25T70.33.7h7.53q7.38,18.19,11.56,28.76T96.54,47A9,9,0,0,0,97.79,49a8.06,8.06,0,0,0,2.15,1.75,8.33,8.33,0,0,0,2.45.91,19.05,19.05,0,0,0,2.52.37V55Zm-28-21.63L69.12,13.79,61.41,33.37ZM155.15,4.48a11.71,11.71,0,0,0-2.37.45A10.93,10.93,0,0,0,150.44,6a9.21,9.21,0,0,0-2.51,2,13.83,13.83,0,0,0-1.75,3q-1.16,2.59-3.28,7.59T138.08,30q-2.41,5.74-5.23,12.56l-5.37,13.09H119.9q-5.27-12.94-10.74-26.3t-7.69-18.56A12.93,12.93,0,0,0,99.8,7.89a10.15,10.15,0,0,0-2.57-2,10.76,10.76,0,0,0-2.27-1,19.23,19.23,0,0,0-2.6-.51V1.47h29V4.33a28.39,28.39,0,0,0-5.5,1c-1,.36-1.44.82-1.44,1.38a3.71,3.71,0,0,0,.13.89c.09.31.23.73.4,1.26q1.22,3.32,4.38,10.85t9.4,23q3.8-9.4,6.33-15.89t4.45-11.47c.63-1.61,1.16-3.11,1.57-4.52a12.27,12.27,0,0,0,.62-3.15c0-.8-.58-1.48-1.74-2a21.38,21.38,0,0,0-6.47-1.18v-3h21.7v3Zm40.42,10.66h-2.94a20.12,20.12,0,0,0-3.77-6.19,10.18,10.18,0,0,0-5.3-3.71,17.67,17.67,0,0,0-3.15-.32c-1.34,0-2.46-.05-3.33-.05h-7.76v20.7h5.51a13.82,13.82,0,0,0,3.78-.49,7.25,7.25,0,0,0,3.09-1.89,9.62,9.62,0,0,0,1.76-3.06,19.47,19.47,0,0,0,1.15-3.82h2.94V38.62h-2.94a19.92,19.92,0,0,0-1.15-4,10.87,10.87,0,0,0-1.76-3.3,6.32,6.32,0,0,0-2.95-1.87,13.38,13.38,0,0,0-3.93-.51h-5.51V44.41a15.9,15.9,0,0,0,.36,3.84A3.74,3.74,0,0,0,171,50.42a5.4,5.4,0,0,0,2.59.94,33.76,33.76,0,0,0,4.48.23q1.31,0,3.17,0a28,28,0,0,0,3.24-.23,18.73,18.73,0,0,0,3-.57,4.29,4.29,0,0,0,2-1.09A30.79,30.79,0,0,0,193.59,44a40.14,40.14,0,0,0,3-5.69h2.78l-1,16.68H148.07V52.06c.71-.05,1.66-.15,2.88-.3a11.52,11.52,0,0,0,2.57-.54,3.7,3.7,0,0,0,1.93-1.52,5.07,5.07,0,0,0,.49-2.36V9.58a5.42,5.42,0,0,0-.41-2.25,3.86,3.86,0,0,0-2-1.6,13.63,13.63,0,0,0-2.77-.84c-1.18-.24-2.09-.41-2.69-.49V1.47h47.5V15.14ZM257.16,55H236.64c-3.55-5.42-6.49-9.74-8.84-12.95s-5.27-6.93-8.75-11.15h-2.12V47.13a4.67,4.67,0,0,0,.52,2.29A3.87,3.87,0,0,0,219.38,51a12.37,12.37,0,0,0,2.25.62,25.2,25.2,0,0,0,2.63.44V55H195.68V52.06l2.9-.32a11.14,11.14,0,0,0,2.56-.52,3.7,3.7,0,0,0,1.93-1.52,5.08,5.08,0,0,0,.49-2.36V9.58a5.52,5.52,0,0,0-.41-2.27,3.67,3.67,0,0,0-2-1.58,16.52,16.52,0,0,0-2.86-.84c-1.11-.22-2-.39-2.6-.49V1.47h30.06q10.08,0,15.31,3.15a10.39,10.39,0,0,1,5.23,9.54,12.67,12.67,0,0,1-3.23,9q-3.22,3.42-9.83,5.34,2.57,3.32,6,7.69t7.11,8.93c.79,1,1.84,2.18,3.19,3.59a9.14,9.14,0,0,0,3.57,2.61,13.36,13.36,0,0,0,2.2.45c.89.13,1.53.21,1.9.23V55Zm-25.64-39.8q0-5.37-3-7.84c-2-1.66-4.88-2.48-8.59-2.48h-3V27.34h2.88c3.72,0,6.59-1,8.64-2.91s3.08-5,3.08-9.24ZM310.65,4.33q-1.06.12-3,.42a7.76,7.76,0,0,0-3.54,1.47,5.84,5.84,0,0,0-2,3.5,34.15,34.15,0,0,0-.58,7.27V55.3h-6.81L261.61,13.92V39a30.79,30.79,0,0,0,.62,7.11,6.56,6.56,0,0,0,2,3.57,9.59,9.59,0,0,0,3.24,1.48,36.34,36.34,0,0,0,3.54.86V55H247.94V52.06a23.08,23.08,0,0,0,3.37-.55,8.75,8.75,0,0,0,3.18-1.34,5.68,5.68,0,0,0,2-3.31,35.19,35.19,0,0,0,.54-7.43V14a10.91,10.91,0,0,0-.58-3.58,7.24,7.24,0,0,0-1.81-2.88,9.61,9.61,0,0,0-3-2,17.47,17.47,0,0,0-3.86-1.16V1.47H268l29,36.25V17.39a29.82,29.82,0,0,0-.64-7.21,6.45,6.45,0,0,0-2-3.5A9.51,9.51,0,0,0,291,5.17a34.56,34.56,0,0,0-3.48-.85V1.47h23.09V4.33Zm17.76,52.13a33,33,0,0,1-9.15-1.22,34.24,34.24,0,0,1-7.2-2.88L309.46,55h-3.24l-.46-19.31H309a51.06,51.06,0,0,0,2.79,5.79,28.24,28.24,0,0,0,3.93,5.45A19.73,19.73,0,0,0,320.86,51a13.43,13.43,0,0,0,6.66,1.58q5.12,0,7.87-2.5a8.22,8.22,0,0,0,2.73-6.31,6.83,6.83,0,0,0-2.32-5.24,19.53,19.53,0,0,0-7.18-3.68L322.78,33c-1.78-.58-3.44-1.17-5-1.78a16.49,16.49,0,0,1-8-6.17,16,16,0,0,1-2.63-8.95,13.91,13.91,0,0,1,1.36-6,15.82,15.82,0,0,1,4-5.19,19.27,19.27,0,0,1,6.37-3.51A25.22,25.22,0,0,1,327.3,0a27,27,0,0,1,8.34,1.25,33.5,33.5,0,0,1,6.11,2.48l2.3-2.27h3.24l.31,18.23h-3.24c-.76-2-1.64-4-2.65-6a26,26,0,0,0-3.23-5.11,14.52,14.52,0,0,0-4.26-3.49,11.74,11.74,0,0,0-5.65-1.3,9.59,9.59,0,0,0-6.64,2.3,7.33,7.33,0,0,0-2.59,5.7A6.75,6.75,0,0,0,321.59,17a19.46,19.46,0,0,0,7,3.59c1.87.63,3.76,1.26,5.7,1.88s3.66,1.24,5.16,1.82a18.64,18.64,0,0,1,8.33,5.84,14.74,14.74,0,0,1,2.84,9.23A14.85,14.85,0,0,1,349,46.11a15.64,15.64,0,0,1-4.38,5.41,22.12,22.12,0,0,1-7,3.66,29.9,29.9,0,0,1-9.24,1.29Zm49-1.47H347.79V52.06l3-.23a9.82,9.82,0,0,0,2.72-.45,3.62,3.62,0,0,0,1.9-1.49,4.88,4.88,0,0,0,.5-2.36V9.58a5,5,0,0,0-.49-2.27,3.52,3.52,0,0,0-1.92-1.58A15.23,15.23,0,0,0,350.82,5a29.48,29.48,0,0,0-3-.55V1.47h29.58V4.4c-.75.08-1.69.18-2.82.32a16.43,16.43,0,0,0-2.84.58,3.1,3.1,0,0,0-2,1.53,5.55,5.55,0,0,0-.49,2.36V47.11a5,5,0,0,0,.5,2.32A3.72,3.72,0,0,0,371.7,51a11.88,11.88,0,0,0,2.6.66,27.51,27.51,0,0,0,3.06.4V55ZM422.52,7a24.28,24.28,0,0,1,7.92,8.53,26.27,26.27,0,0,1,3,13.08,24.6,24.6,0,0,1-2.7,11.82,23.73,23.73,0,0,1-7.14,8.25,32.21,32.21,0,0,1-10.29,4.76,45.74,45.74,0,0,1-12,1.57h-27V52.06c.81,0,1.82-.1,3-.23a9.17,9.17,0,0,0,2.43-.45,3.72,3.72,0,0,0,1.89-1.52,4.83,4.83,0,0,0,.53-2.33V9.58a5.46,5.46,0,0,0-.49-2.33,3.65,3.65,0,0,0-1.91-1.67,11.52,11.52,0,0,0-3-.88c-1.07-.14-1.88-.24-2.46-.3V1.47h28.45a44.22,44.22,0,0,1,9.76,1.17,30.13,30.13,0,0,1,10,4.34Zm-7.69,38.39a22.16,22.16,0,0,0,2.7-7.2,48.55,48.55,0,0,0,.85-9.62,38.54,38.54,0,0,0-1.13-9.71,22.78,22.78,0,0,0-3.32-7.48,15.17,15.17,0,0,0-5.47-4.8A15.82,15.82,0,0,0,401,4.87c-.89,0-1.89,0-3,.05l-2.51.1V45.7a7.23,7.23,0,0,0,.36,2.41,4.37,4.37,0,0,0,1.22,1.83,6,6,0,0,0,2.14,1.22,10.24,10.24,0,0,0,3.31.44A15.74,15.74,0,0,0,409.88,50a12.54,12.54,0,0,0,5-4.65ZM478.1,15.14h-2.94a20.12,20.12,0,0,0-3.77-6.19,10.18,10.18,0,0,0-5.3-3.71,17.67,17.67,0,0,0-3.15-.32c-1.34,0-2.46-.05-3.33-.05h-7.76v20.7h5.51a13.82,13.82,0,0,0,3.78-.49,7.25,7.25,0,0,0,3.09-1.89A9.61,9.61,0,0,0,466,20.12a19.48,19.48,0,0,0,1.15-3.82h2.94V38.62h-2.94a20,20,0,0,0-1.15-4,10.86,10.86,0,0,0-1.76-3.3,6.32,6.32,0,0,0-2.95-1.87,13.38,13.38,0,0,0-3.93-.51h-5.51V44.41a15.91,15.91,0,0,0,.36,3.84,3.74,3.74,0,0,0,1.34,2.18,5.4,5.4,0,0,0,2.59.94,33.75,33.75,0,0,0,4.48.23q1.31,0,3.17,0a28,28,0,0,0,3.24-.23,18.73,18.73,0,0,0,3-.57,4.28,4.28,0,0,0,2-1.09A30.78,30.78,0,0,0,476.12,44a40.13,40.13,0,0,0,3-5.69h2.78l-1,16.68H430.6V52.06c.71-.05,1.66-.15,2.88-.3a11.51,11.51,0,0,0,2.57-.54A3.7,3.7,0,0,0,438,49.7a5.08,5.08,0,0,0,.49-2.36V9.58a5.42,5.42,0,0,0-.41-2.25,3.86,3.86,0,0,0-2-1.6,13.62,13.62,0,0,0-2.77-.84c-1.18-.24-2.09-.41-2.69-.49V1.47h47.5V15.14Z"/></g></g></svg>