<svg xmlns="http://www.w3.org/2000/svg" viewBox="0 0 481.89 650.28"><defs><style>.cls-1{fill:#4783b5;}.cls-1,.cls-3{fill-rule:evenodd;}.cls-2{fill:#fff;}.cls-4{fill:none;stroke:#000;stroke-miterlimit:10;stroke-width:4px;}</style></defs><title>Mug</title><g id="Layer_2" data-name="Layer 2"><g id="Layer_1-2" data-name="Layer 1"><path class="cls-1" d="M314.65,378.77l.26,7.93h-14l-.26-7.93ZM66.4,534.25A5.56,5.56,0,1,0,72,539.81a5.57,5.57,0,0,0-5.56-5.56Zm237.91-9.68a3.74,3.74,0,0,0-.91,7.37,3.79,3.79,0,0,0,2.16-.1l.58,17.88-6.93.47a5.56,5.56,0,0,0-10,.61c-9.85.57-20.18,1.07-30.91,1.5a5.56,5.56,0,1,0-8.55.32c-12.52.44-25.54.77-38.95,1a5.69,5.69,0,0,0-.06-2.59A5.56,5.56,0,0,0,200,553.75q-12.9.15-26.21.15c-14.75,0-29.16-.14-43.13-.4a12,12,0,0,0-23.45-.57c-18.07-.54-35.18-1.3-51-2.25a12,12,0,0,0-14.9-11.07l1.43-62.21a11.93,11.93,0,0,0,7.43,2.6,12,12,0,1,0,0-24,11.93,11.93,0,0,0-7,2.27L45.5,330H33L26,591.76a33.31,33.31,0,0,0,2.15,12.88,32.08,32.08,0,0,0,30.39,20.63H289a33,33,0,0,0,30.45-20.71,32.12,32.12,0,0,0,2.08-12.76L318.87,509h80.51c24.15,0,43.84,12.63,43.84,12.63-.74-26.75,40.12-179.06,38.64-244.45S435.41,145,435.41,145V123.43h-66.5s-1.11,17.46-25.63,22.29A40.05,40.05,0,0,1,305,133.1l3.36,90.63c21.18-1.49,20.06-43.47,68.36-43.09s62,81.36,55.35,160.86-16,122.6-60.93,122.6c-36.37,0-50.36-14.59-54.38-20.16l-1.08-33.47h-14l1.8,55.64a12,12,0,0,0,.77,23.9l1.12,34.7a3.74,3.74,0,0,0-1-.14ZM73.61,500.79a3.74,3.74,0,1,0,3.74,3.74,3.75,3.75,0,0,0-3.74-3.74ZM114.47,461a3.74,3.74,0,1,0,3.74,3.74,3.75,3.75,0,0,0-3.74-3.74Zm167.18-27.86a3.74,3.74,0,1,0,3.74,3.74,3.75,3.75,0,0,0-3.74-3.74Zm-40.87,45.69a3.74,3.74,0,1,0,3.74,3.74,3.75,3.75,0,0,0-3.74-3.74Zm13.75,45a3.74,3.74,0,1,0,3.74,3.74,3.75,3.75,0,0,0-3.74-3.74ZM201,509.14a12,12,0,1,0,12,12,12,12,0,0,0-12-12Zm-52,1.49a12,12,0,1,0,12,12,12,12,0,0,0-12-12Zm-66.4-32.5a5.56,5.56,0,1,0,5.56,5.56,5.57,5.57,0,0,0-5.56-5.56Zm57.63-7.58a5.56,5.56,0,1,0,5.56,5.56,5.57,5.57,0,0,0-5.56-5.56Zm137,24.77a5.56,5.56,0,1,0,5.56,5.56,5.57,5.57,0,0,0-5.56-5.56Zm-57.63,1a5.56,5.56,0,1,0,5.56,5.56,5.57,5.57,0,0,0-5.56-5.56Zm-47,42.46a5.56,5.56,0,1,0,5.56,5.56,5.57,5.57,0,0,0-5.56-5.56ZM101.78,515a5.56,5.56,0,1,0,5.56,5.56,5.57,5.57,0,0,0-5.56-5.56ZM315.16,394.62l.26,7.93h-14l-.26-7.93ZM31.88,322.88l.18-7.93h14l-.18,7.93Zm.36-14.18.18-7.93h14l-.18,7.93Z"/><path d="M300.53,66.84q.72.64,1.41,1.31a41.67,41.67,0,0,1,12.63,28.62l1.46,45a40,40,0,0,0,27.25,3.9c24.52-4.83,25.63-22.29,25.63-22.29h66.5V145s45,66.87,46.44,132.25-39.38,217.7-38.64,244.45a69.56,69.56,0,0,0-6.85-3.69c-11.43-5.38-32.35-7.93-34.37-8H327.94l2.64,81.53a40.89,40.89,0,0,1-2.68,16.3A41.39,41.39,0,0,1,289,634.35h-3l-7.94,15.92H69.47l-7.93-15.92h-3A42,42,0,0,1,19.75,607.9,41.92,41.92,0,0,1,17,591.6L28,110.86c-6.13-2.38-16.42-8.3-15.9-21A6.47,6.47,0,0,1,9.47,88,15.63,15.63,0,0,1,13,58.22a28.87,28.87,0,0,1,3.18-8.89C25.62,32,45.93,41.65,45.93,41.65s.17-6.87,5.33-10.82A22.49,22.49,0,0,1,90.47,11a39.13,39.13,0,0,1,6-1.29,32.13,32.13,0,0,1,27.21,8.78,15.63,15.63,0,0,1,21.68,2.85,21.56,21.56,0,0,1,3.37-.49,18.24,18.24,0,0,1,4.56.24A26.57,26.57,0,0,1,198.07,7.78q.41.41.81.85a22.19,22.19,0,0,1,5.57.09c12.14,1.69,18,8.34,25.7,13.26a15.63,15.63,0,0,1,31.07-1c.69,0,1.42.08,2.18.17a14.53,14.53,0,0,1,6.85,2.49,9.61,9.61,0,0,1,12.68.8,9.75,9.75,0,0,1,.74.83c5.3-3.31,12.59-6.06,20.84-4.12,15.29,3.6,26.9,32.09-4,45.74Zm-114,134.56,102.8,59.35-26.21,15.06L186.55,201.4ZM86.16,289.52,58.81,397.63l108.7,15.13L86.16,289.52ZM293,267.24V385.56l-26.14-103.3,26.14-15ZM284.43,405.7l-107.1,61.84V420.6l107.1-14.91ZM169.86,467.53,62.76,405.7l107.1,14.91v46.93Zm-115.68-82V267.24l26.14,15L54.18,385.56Zm3.66-124.81,102.8-59.35L84,275.81,57.84,260.75Zm115.75-61.56,79.79,77.52H93.8l79.79-77.52Zm82.05,85L173.59,408.47,91.54,284.17Zm5.37,5.36,27.35,108.11-108.7,15.13L261,289.52ZM434.39,507.18c11.58-98,85.15-256.63-12.72-363.32V132.34H374.49C362,157,335.32,156.86,316.39,153l1.34,41.49c13.67-11.17,34.69-24.12,59.36-25C420.92,168,445.37,245.06,442.47,301c-2.82,54.44,6.15,213.86-115.73,171.76l.88,27.32H402l.17,0c.06,0,17.93.58,32.22,7.07ZM377.15,138.4h29.42v6.84H377.15V138.4Zm32.1,0h7.13v6.84h-7.13V138.4ZM318.53,219l7.56,233.67c8.27,5.65,22.27,11.37,45.05,11.37,45,0,54.24-43.1,60.93-122.6S425,181,376.72,180.64c-39.1-.3-45.81,27.15-58.19,38.41Zm-279.94-52H99.25l-7.45,4.3H38.48L28.85,591.83a30.34,30.34,0,0,0,2,11.8,29.35,29.35,0,0,0,6.44,9.84,28.38,28.38,0,0,0,21.33,9H289a30.2,30.2,0,0,0,27.83-18.92,29.25,29.25,0,0,0,1.89-11.65L305.13,171.4H274.35l7.45-4.3H305l-.16-4.91H231.31L251.9,150.3h52.55l-1.72-53.16A29.9,29.9,0,0,0,290.26,73.8c-.19,2.87-2.29,6.48-11.89,5.87-15.6-1-18.82-8.92-18.82-8.92s-.25,9.16-7.68,9.16-11.64-2.48-11.64-2.48-12.14,0-13.13,6.44,11.89,40.87-5.45,38.39,6.44-34.43,1.24-40.62-10.4,4.71-16.84-1c0,0-2.48,7.31-11.89,5.2s-8.92-8.42-8.92-8.42-2.6,2.85-4.21,2.35-2.85-3.59-2.85-3.59-9.41,1.24-10.53,1.36-2.35,3.47,0,9-8.54,6.69-5.7-1.11,1.24-11.76-.87-12.14-.12,7.55-3.47,7.18S154,75,154,75s-8.91,24.89-33.93,8c0,0-6.69,5.7-18.08,1.24s-5.45-13.87-5.45-13.87-5.45,6.19-10.15,5S81,71.62,81,71.62,64.14,78.8,71.32,94.16,60.67,110,64.63,96.64s-2.48-20.06-2.48-20.06,3.22,8.17-2,10.9-6.69-6.56-6.69-6.56,1.29,15.74-13.43,21.87L39,150.3H85.25L64.66,162.19h-26l-.11,4.91Zm68.56,0h45.34L145,171.4H99.69l7.45-4.3Zm53.23,0H273.91l-7.45,4.3H152.92l7.45-4.3Zm-69.2-16.8H211.81l-20.59,11.89H70.59L91.18,150.3Zm126.56,0h14.4l-20.59,11.89h-14.4l20.59-11.89ZM6.37,80.73c-.82-7,8.2-8,12.81-2.67a22.94,22.94,0,0,1-6.5-15.72A11.67,11.67,0,0,0,6.37,80.73ZM54.88,28.92l.46-.15C64.51,26.05,69,36,69,36s1.61-16.4,17.52-23.49l-.35-.36A18.53,18.53,0,0,0,54.88,28.92Zm71.57-7.56a40.88,40.88,0,0,1,6.16,9.15,19.9,19.9,0,0,1,8.67-7.79,11.67,11.67,0,0,0-14.84-1.36Zm30.61,1a12,12,0,0,1,5.77,6.4s.5-4.71,7.18-5.2S176.21,29,176.21,29s5.64-15,18.09-19.35a22.61,22.61,0,0,0-37.24,12.7Zm77.06,1.85a33,33,0,0,0,14.16,3.32s2.06-5.07,9-6.34a11.67,11.67,0,0,0-23.18,1.88q0,.58.06,1.14ZM273,26.49a11.75,11.75,0,0,1,1.8,6.25,38.17,38.17,0,0,1,5.62-5.24l-.28-.31a5.65,5.65,0,0,0-7.13-.7Z"/><path class="cls-2" d="M223,322.11h-5.56c-1.77-6.9-10.29-22.94-17.51-23.92-4.74-.64-12.85-.63-17.83-.63v86.73l-8.51,12.89-8.51-12.89V297.56a154.81,154.81,0,0,0-17.83.63c-5.9.69-12.58,12.05-14.94,17.23a47.4,47.4,0,0,0-2.56,6.68h-5.56V291.35H223v30.76Z"/><path class="cls-3" d="M15.91,94.44S1,104.09,2.54,119.7s16.59,14.61,16.59,14.61-7.43,3.47-7.43,9.16,7.43,7.68,7.43,7.68S16.9,159.57,7.24,170s.74,22.54,8.67,19.57-2.72-14.36,5.94-28c0,0-3.72,4.71-1.73,15.11s-4.21,21.55-3.72,32.44S29.28,221,29.28,221L35.47,98.4l-19.56-4Z"/><path class="cls-3" d="M26,213.56a7.65,7.65,0,1,0,7.65,7.65A7.65,7.65,0,0,0,26,213.56Z"/><path class="cls-3" d="M24.49,238.82a7.65,7.65,0,1,0,7.65,7.65,7.65,7.65,0,0,0-7.65-7.65Z"/><path class="cls-3" d="M48.34,88.8s15.11,10.4,12.88,27.74-11.89,14.36-11.89,14.36,7.68,3,7.18,10.4-7.68,6.44-7.68,6.44,14.36,14.61,8.92,31.95,4,19.57-2.72,25.26-12.14-11.15-7.18-25.26a20.38,20.38,0,0,0-4.71,11.64c-.25,6.69-3,7.68-3,7.68S53,219.57,34,228.74V92.27L48.34,88.8Z"/><circle cx="307.5" cy="62.83" r="20.5"/><circle cx="312.36" cy="50.74" r="20.5"/><circle cx="324.49" cy="71.81" r="16.99"/><circle cx="314.93" cy="89.74" r="17.93"/><circle cx="299.23" cy="71.24" r="17.56"/><circle class="cls-4" cx="307.5" cy="32.76" r="23.29"/></g></g></svg>